<?xml version="1.0" encoding="utf-8"?>
<!-- Generator: Adobe Illustrator 21.1.0, SVG Export Plug-In . SVG Version: 6.00 Build 0)  -->
<svg version="1.1" id="Calque_1" xmlns="http://www.w3.org/2000/svg" xmlns:xlink="http://www.w3.org/1999/xlink" x="0px" y="0px"
	 viewBox="0 0 1242 1242" style="enable-background:new 0 0 1242 1242;" xml:space="preserve">
<style type="text/css">
	.st0{fill:#FFFFFF;stroke:#000000;stroke-width:10;stroke-miterlimit:10;}
	.st1{fill:#FFFFFF;stroke:#000000;stroke-width:21;stroke-miterlimit:10;}
</style>
<g>
	<rect x="-642" y="863" class="st0" width="42" height="47"/>
	<rect x="-153" y="863" class="st0" width="42" height="47"/>
	<rect x="-651.5" y="584.5" class="st0" width="613" height="293"/>
	<rect x="-677" y="585" class="st0" width="613" height="293"/>
	<line class="st1" x1="-623" y1="657" x2="-386" y2="657"/>
	<line class="st1" x1="-623" y1="693" x2="-468" y2="693"/>
	<line class="st0" x1="-324" y1="833" x2="-169" y2="833"/>
</g>
<rect x="197.5" y="143.5" class="st1" width="861" height="1143"/>
<line class="st1" x1="761.5" y1="183" x2="761.5" y2="1344"/>
<line class="st1" x1="266.5" y1="275.5" x2="641.5" y2="275.5"/>
<line class="st1" x1="267" y1="365.5" x2="642" y2="365.5"/>
<line class="st1" x1="267.5" y1="455.5" x2="642.5" y2="455.5"/>
<line class="st1" x1="268" y1="545.5" x2="643" y2="545.5"/>
<line class="st1" x1="268.5" y1="635.5" x2="643.5" y2="635.5"/>
<line class="st1" x1="269" y1="725.5" x2="644" y2="725.5"/>
<line class="st1" x1="269.5" y1="815.5" x2="644.5" y2="815.5"/>
<line class="st1" x1="270" y1="905.5" x2="645" y2="905.5"/>
<line class="st1" x1="270.5" y1="995.5" x2="645.5" y2="995.5"/>
<line class="st1" x1="271" y1="1085.5" x2="646" y2="1085.5"/>
<line class="st1" x1="271.5" y1="1175.5" x2="646.5" y2="1175.5"/>
</svg>
